<svg width="53" height="51" viewBox="0 0 53 51" fill="none" xmlns="http://www.w3.org/2000/svg">
<path d="M50.5 25.5C50.5 38.1128 39.8463 48.5 26.5 48.5C13.1537 48.5 2.5 38.1128 2.5 25.5C2.5 12.8872 13.1537 2.5 26.5 2.5C39.8463 2.5 50.5 12.8872 50.5 25.5Z" stroke="#38D3A5" stroke-width="5"/>
<path d="M28.0438 11.9226C27.4488 11.3462 26.4992 11.3612 25.9227 11.9562L16.5291 21.652C15.9526 22.247 15.9676 23.1966 16.5626 23.7731C17.1576 24.3495 18.1072 24.3345 18.6837 23.7395L27.0336 15.121L35.6521 23.471C36.2471 24.0474 37.1967 24.0324 37.7732 23.4374C38.3496 22.8424 38.3346 21.8928 37.7396 21.3163L28.0438 11.9226ZM28.9113 38.973L28.4999 12.9762L25.5002 13.0237L25.9117 39.0204L28.9113 38.973Z" fill="#38D3A5"/>
</svg>
