<svg width="220" height="70" viewBox="0 0 220 70" fill="none" xmlns="http://www.w3.org/2000/svg">
<path d="M10.5762 39.3008V56H4.95117V13.3438H20.6836C25.3516 13.3438 29.0039 14.5352 31.6406 16.918C34.2969 19.3008 35.625 22.4551 35.625 26.3809C35.625 30.5215 34.3262 33.7148 31.7285 35.9609C29.1504 38.1875 25.4492 39.3008 20.625 39.3008H10.5762ZM10.5762 34.7012H20.6836C23.6914 34.7012 25.9961 33.998 27.5977 32.5918C29.1992 31.166 30 29.1152 30 26.4395C30 23.9004 29.1992 21.8691 27.5977 20.3457C25.9961 18.8223 23.7988 18.0312 21.0059 17.9727H10.5762V34.7012ZM48.8379 56H43.2129V13.3438H48.8379V56ZM124.307 39.3008V56H118.682V13.3438H134.414C139.082 13.3438 142.734 14.5352 145.371 16.918C148.027 19.3008 149.355 22.4551 149.355 26.3809C149.355 30.5215 148.057 33.7148 145.459 35.9609C142.881 38.1875 139.18 39.3008 134.355 39.3008H124.307ZM124.307 34.7012H134.414C137.422 34.7012 139.727 33.998 141.328 32.5918C142.93 31.166 143.73 29.1152 143.73 26.4395C143.73 23.9004 142.93 21.8691 141.328 20.3457C139.727 18.8223 137.529 18.0312 134.736 17.9727H124.307V34.7012ZM176.045 44.8672H158.174L154.16 56H148.359L164.648 13.3438H169.57L185.889 56H180.117L176.045 44.8672ZM159.873 40.2383H174.375L167.109 20.2871L159.873 40.2383ZM201.885 34.7598L213.018 13.3438H219.404L204.697 40.0918V56H199.072V40.0918L184.365 13.3438H190.811L201.885 34.7598Z" fill="white"/>
<path d="M76.3401 55.4163C63.553 55.4163 56.2198 48.8788 56.2198 37.4847C56.2198 31.5114 58.1364 25.5615 61.4829 21.1525C64.1032 17.697 68.8048 13.5837 76.3401 13.5837C83.8753 13.5837 88.5769 17.697 91.1972 21.1525C94.5437 25.5615 96.4603 31.5153 96.4603 37.4847C96.4603 48.8788 89.1272 55.4163 76.3401 55.4163Z" fill="url(#paint0_linear)"/>
<path d="M76.34 14.1674C83.6507 14.1674 88.2138 18.16 90.7555 21.5105C94.0234 25.8183 95.8988 31.6398 95.8988 37.4808C95.8988 43.0027 94.1918 47.3183 90.8229 50.303C87.4838 53.2682 82.4753 54.8326 76.34 54.8326C70.2048 54.8326 65.1962 53.2682 61.8572 50.3069C58.4883 47.3222 56.7813 43.0066 56.7813 37.4847C56.7813 31.6398 58.6567 25.8183 61.9246 21.5144C64.4663 18.16 69.0294 14.1674 76.34 14.1674ZM76.34 13C63.1225 13 55.6583 25.6081 55.6583 37.4847C55.6583 49.3613 63.3545 56 76.34 56C89.3255 56 97.0218 49.3574 97.0218 37.4847C97.0218 25.612 89.5576 13 76.34 13Z" fill="#ED7E7E"/>
<path d="M64.8406 36.5469C66.7385 36.5469 68.277 34.7367 68.277 32.5037C68.277 30.2708 66.7385 28.4606 64.8406 28.4606C62.9428 28.4606 61.4043 30.2708 61.4043 32.5037C61.4043 34.7367 62.9428 36.5469 64.8406 36.5469Z" fill="#404040"/>
<path d="M87.8394 36.5469C89.7373 36.5469 91.2758 34.7367 91.2758 32.5037C91.2758 30.2708 89.7373 28.4606 87.8394 28.4606C85.9416 28.4606 84.4031 30.2708 84.4031 32.5037C84.4031 34.7367 85.9416 36.5469 87.8394 36.5469Z" fill="#404040"/>
<path d="M76.34 34.535C71.5598 34.535 67.6892 39.1035 67.6892 43.4814C67.6892 47.8592 71.5598 50.3886 76.34 50.3886C81.1202 50.3886 84.9907 47.8592 84.9907 43.4814C84.9907 39.1035 81.1202 34.535 76.34 34.535Z" fill="#EB7070"/>
<path d="M75.2731 43.2907C75.2806 43.2168 75.2843 43.1467 75.2843 43.0806C75.2843 43.0144 75.2806 42.9444 75.2731 42.8704C75.2244 40.952 74.5544 39.8274 73.7009 39.6873C73.641 39.6678 73.5774 39.6561 73.5137 39.6561C73.4501 39.6561 73.3902 39.6678 73.3266 39.6873C72.4731 39.8312 71.8031 40.952 71.7544 42.8704C71.7469 42.9444 71.7432 43.0144 71.7432 43.0806C71.7432 43.1467 71.7469 43.2168 71.7544 43.2907C71.8031 45.2092 72.4731 46.3338 73.3266 46.4739C73.3865 46.4933 73.4501 46.505 73.5137 46.505C73.5774 46.505 73.6373 46.4933 73.7009 46.4739C74.5544 46.3299 75.2244 45.2092 75.2731 43.2907Z" fill="#404040"/>
<path d="M80.9217 43.2907C80.9291 43.2168 80.9329 43.1467 80.9329 43.0806C80.9329 43.0144 80.9291 42.9444 80.9217 42.8704C80.873 40.952 80.2029 39.8274 79.3495 39.6873C79.2896 39.6678 79.2259 39.6561 79.1623 39.6561C79.0987 39.6561 79.0388 39.6678 78.9751 39.6873C78.1217 39.8312 77.4516 40.952 77.403 42.8704C77.3955 42.9444 77.3917 43.0144 77.3917 43.0806C77.3917 43.1467 77.3955 43.2168 77.403 43.2907C77.4516 45.2092 78.1217 46.3338 78.9751 46.4739C79.035 46.4933 79.0987 46.505 79.1623 46.505C79.2259 46.505 79.2858 46.4933 79.3495 46.4739C80.2029 46.3299 80.873 45.2092 80.9217 43.2907Z" fill="#404040"/>
<path d="M98.1186 26.6743C90.8903 26.4058 85.4587 20.9423 85.1892 13.6693C85.6721 13.6654 86.5817 13.6615 88.2625 13.6615C91.6763 13.6615 96.494 13.6732 98.1186 13.6771V26.6743V26.6743Z" fill="url(#paint1_linear)"/>
<path d="M88.2624 14.2452C91.3282 14.2452 95.5656 14.253 97.557 14.2607V26.0595C94.4576 25.8143 91.6277 24.5613 89.4977 22.4677C87.3303 20.3391 86.0352 17.4517 85.7844 14.2491C86.3197 14.2452 87.1057 14.2452 88.2624 14.2452ZM88.2624 13.0778C86.1774 13.0778 84.6165 13.0817 84.6165 13.0933C84.6165 21.4482 90.8902 27.2658 98.68 27.2658V13.0933C98.68 13.0933 92.4287 13.0778 88.2624 13.0778Z" fill="#ED7E7E"/>
<path d="M54.5615 13.6771C56.1861 13.6732 61.0037 13.6615 64.4176 13.6615C66.0984 13.6615 67.008 13.6654 67.4909 13.6693C67.2176 20.9423 61.7898 26.402 54.5615 26.6743V13.6771Z" fill="url(#paint2_linear)"/>
<path d="M64.4176 14.2452C65.5743 14.2452 66.3604 14.2452 66.8957 14.2491C66.6449 17.4517 65.3459 20.3352 63.1823 22.4677C61.0524 24.5613 58.2224 25.8143 55.123 26.0595V14.2607C57.1144 14.253 61.3518 14.2452 64.4176 14.2452ZM64.4176 13.0778C60.2513 13.0778 54 13.0933 54 13.0933V27.2658C61.7898 27.2658 68.0636 21.4482 68.0636 13.0933C68.0636 13.0817 66.4989 13.0778 64.4176 13.0778Z" fill="#ED7E7E"/>
<defs>
<linearGradient id="paint0_linear" x1="76.3401" y1="55.4163" x2="76.3401" y2="13.5832" gradientUnits="userSpaceOnUse">
<stop offset="0.00117723" stop-color="#E08787"/>
<stop offset="0.4304" stop-color="#FFB5B5"/>
</linearGradient>
<linearGradient id="paint1_linear" x1="91.6545" y1="31.5045" x2="91.6545" y2="-4.03851" gradientUnits="userSpaceOnUse">
<stop stop-color="#FF9999"/>
<stop offset="0.4304" stop-color="#FFB5B5"/>
</linearGradient>
<linearGradient id="paint2_linear" x1="61.0257" y1="31.5045" x2="61.0257" y2="-4.03851" gradientUnits="userSpaceOnUse">
<stop stop-color="#FF9999"/>
<stop offset="0.4304" stop-color="#FFB5B5"/>
</linearGradient>
</defs>
</svg>
