<svg width="45" height="43" viewBox="0 0 45 43" fill="none" xmlns="http://www.w3.org/2000/svg">
<path d="M22.3401 42.4163C9.55297 42.4163 2.21985 35.8788 2.21985 24.4847C2.21985 18.5114 4.13642 12.5615 7.48292 8.15252C10.1032 4.69695 14.8048 0.58374 22.3401 0.58374C29.8753 0.58374 34.5769 4.69695 37.1972 8.15252C40.5437 12.5615 42.4603 18.5153 42.4603 24.4847C42.4603 35.8788 35.1272 42.4163 22.3401 42.4163Z" fill="url(#paint0_linear)"/>
<path d="M22.34 1.16742C29.6507 1.16742 34.2138 5.16 36.7555 8.5105C40.0234 12.8183 41.8988 18.6398 41.8988 24.4808C41.8988 30.0027 40.1918 34.3183 36.8229 37.303C33.4838 40.2682 28.4753 41.8326 22.34 41.8326C16.2048 41.8326 11.1962 40.2682 7.85722 37.3069C4.48826 34.3222 2.78131 30.0066 2.78131 24.4847C2.78131 18.6398 4.65671 12.8183 7.9246 8.51439C10.4663 5.16 15.0294 1.16742 22.34 1.16742ZM22.34 0C9.12246 0 1.65833 12.6081 1.65833 24.4847C1.65833 36.3613 9.35454 43 22.34 43C35.3255 43 43.0218 36.3574 43.0218 24.4847C43.0218 12.612 35.5576 0 22.34 0Z" fill="#ED7E7E"/>
<path d="M17.7898 18.1952C17.7897 17.7948 17.6773 17.4775 17.4526 17.2432C17.2328 17.004 16.8567 16.7844 16.3244 16.5844C15.7922 16.3844 15.3331 16.1868 14.9473 15.9916C14.5615 15.7915 14.2294 15.5646 13.951 15.3108C13.6775 15.0521 13.4625 14.7494 13.3062 14.4028C13.1547 14.0561 13.0789 13.6436 13.0787 13.165C13.0784 12.3399 13.3419 11.6635 13.869 11.136C14.3962 10.6085 15.0968 10.3006 15.9708 10.2124L15.9703 8.64505L17.1421 8.64467L17.1427 10.234C18.007 10.3558 18.6834 10.7169 19.1718 11.3173C19.6603 11.9129 19.9047 12.6867 19.905 13.6389L17.7883 13.6396C17.7881 13.0536 17.6659 12.6167 17.4217 12.3287C17.1823 12.0358 16.86 11.8894 16.4547 11.8895C16.0543 11.8897 15.7443 12.0045 15.5247 12.2341C15.305 12.4587 15.1953 12.7713 15.1954 13.1717C15.1955 13.5428 15.303 13.8406 15.518 14.0651C15.7329 14.2897 16.1309 14.519 16.712 14.7532C17.298 14.9874 17.7791 15.2094 18.1551 15.4192C18.5312 15.6242 18.8486 15.8585 19.1075 16.122C19.3664 16.3808 19.5642 16.6785 19.7011 17.0154C19.8379 17.3474 19.9064 17.7356 19.9065 18.1799C19.9068 19.01 19.6482 19.6839 19.1308 20.2016C18.6134 20.7194 17.9006 21.0248 16.9924 21.1179L16.9929 22.5754L15.8284 22.5758L15.8279 21.1256C14.8269 21.0185 14.0504 20.6647 13.4984 20.0643C12.9514 19.459 12.6777 18.6559 12.6773 17.6549L14.794 17.6542C14.7942 18.2353 14.9311 18.682 15.2046 18.9944C15.4831 19.302 15.8811 19.4556 16.3986 19.4555C16.8283 19.4553 17.1676 19.3429 17.4166 19.1182C17.6655 18.8886 17.79 18.581 17.7898 18.1952Z" fill="#404040"/>
<path d="M29.9614 18.244C29.9551 17.8436 29.8378 17.528 29.6096 17.2972C29.3861 17.0615 29.0067 16.8477 28.4714 16.6559C27.9361 16.4641 27.4741 16.2735 27.0853 16.0843C26.6965 15.8902 26.3609 15.6684 26.0786 15.4189C25.8012 15.1644 25.5816 14.8651 25.4199 14.5209C25.2631 14.1767 25.1809 13.7653 25.1734 13.2869C25.1604 12.4618 25.4134 11.7815 25.9324 11.2459C26.4514 10.7103 27.1472 10.3917 28.0197 10.2901L27.9951 8.72291L29.1668 8.70449L29.1918 10.2936C30.0579 10.4021 30.7397 10.7528 31.2374 11.3456C31.735 11.9336 31.9913 12.7036 32.0062 13.6556L29.8898 13.6889C29.8806 13.103 29.7517 12.668 29.503 12.3837C29.2592 12.0946 28.9347 11.9532 28.5294 11.9595C28.1291 11.9658 27.8209 12.0854 27.6048 12.3184C27.3886 12.5464 27.2837 12.8606 27.29 13.2609C27.2958 13.632 27.4079 13.9281 27.6262 14.1493C27.8446 14.3705 28.2461 14.5937 28.8308 14.8189C29.4203 15.0441 29.9047 15.2586 30.2839 15.4627C30.6631 15.6618 30.9841 15.8912 31.247 16.1507C31.5098 16.4054 31.7123 16.7001 31.8543 17.0349C31.9962 17.3647 32.0706 17.7518 32.0776 18.196C32.0907 19.026 31.8425 19.7038 31.3331 20.2295C30.8237 20.7551 30.1157 21.0715 29.2091 21.1785L29.232 22.6359L28.0676 22.6542L28.0448 21.2041C27.0423 21.1125 26.2604 20.7707 25.6993 20.1789C25.143 19.5821 24.8569 18.7833 24.8412 17.7824L26.9577 17.7491C26.9668 18.3301 27.1105 18.7747 27.3888 19.0828C27.6719 19.386 28.0723 19.5336 28.5898 19.5254C29.0194 19.5187 29.357 19.4011 29.6024 19.1726C29.8478 18.9392 29.9675 18.6297 29.9614 18.244Z" fill="#404040"/>
<path d="M22.34 21.535C17.5598 21.535 13.6892 26.1035 13.6892 30.4814C13.6892 34.8592 17.5598 37.3886 22.34 37.3886C27.1202 37.3886 30.9907 34.8592 30.9907 30.4814C30.9907 26.1035 27.1202 21.535 22.34 21.535Z" fill="#EB7070"/>
<path d="M21.2731 30.2907C21.2806 30.2168 21.2843 30.1467 21.2843 30.0806C21.2843 30.0144 21.2806 29.9444 21.2731 29.8704C21.2244 27.952 20.5544 26.8274 19.7009 26.6873C19.641 26.6678 19.5774 26.6561 19.5137 26.6561C19.4501 26.6561 19.3902 26.6678 19.3266 26.6873C18.4731 26.8312 17.8031 27.952 17.7544 29.8704C17.7469 29.9444 17.7432 30.0144 17.7432 30.0806C17.7432 30.1467 17.7469 30.2168 17.7544 30.2907C17.8031 32.2092 18.4731 33.3338 19.3266 33.4739C19.3865 33.4933 19.4501 33.505 19.5137 33.505C19.5774 33.505 19.6373 33.4933 19.7009 33.4739C20.5544 33.3299 21.2244 32.2092 21.2731 30.2907Z" fill="#404040"/>
<path d="M26.9217 30.2907C26.9291 30.2168 26.9329 30.1467 26.9329 30.0806C26.9329 30.0144 26.9291 29.9444 26.9217 29.8704C26.873 27.952 26.2029 26.8274 25.3495 26.6873C25.2896 26.6678 25.2259 26.6561 25.1623 26.6561C25.0987 26.6561 25.0388 26.6678 24.9751 26.6873C24.1217 26.8312 23.4516 27.952 23.403 29.8704C23.3955 29.9444 23.3917 30.0144 23.3917 30.0806C23.3917 30.1467 23.3955 30.2168 23.403 30.2907C23.4516 32.2092 24.1217 33.3338 24.9751 33.4739C25.035 33.4933 25.0987 33.505 25.1623 33.505C25.2259 33.505 25.2858 33.4933 25.3495 33.4739C26.2029 33.3299 26.873 32.2092 26.9217 30.2907Z" fill="#404040"/>
<path d="M44.1186 13.6743C36.8903 13.4058 31.4587 7.94231 31.1892 0.669282C31.6721 0.665391 32.5817 0.661499 34.2625 0.661499C37.6763 0.661499 42.494 0.673173 44.1186 0.677065V13.6743V13.6743Z" fill="url(#paint1_linear)"/>
<path d="M34.2624 1.24518C37.3282 1.24518 41.5656 1.25296 43.557 1.26075V13.0595C40.4576 12.8143 37.6277 11.5613 35.4977 9.46771C33.3303 7.33912 32.0352 4.4517 31.7844 1.24907C32.3197 1.24518 33.1057 1.24518 34.2624 1.24518ZM34.2624 0.0777588C32.1774 0.0777588 30.6165 0.0816502 30.6165 0.0933244C30.6165 8.44817 36.8902 14.2658 44.68 14.2658V0.0933244C44.68 0.0933244 38.4287 0.0777588 34.2624 0.0777588Z" fill="#ED7E7E"/>
<path d="M0.561523 0.677065C2.18611 0.673173 7.00374 0.661499 10.4176 0.661499C12.0984 0.661499 13.008 0.665391 13.4909 0.669282C13.2176 7.94231 7.78983 13.402 0.561523 13.6743V0.677065Z" fill="url(#paint2_linear)"/>
<path d="M10.4176 1.24518C11.5743 1.24518 12.3604 1.24518 12.8957 1.24907C12.6449 4.4517 11.3459 7.33523 9.18231 9.46771C7.05237 11.5613 4.22244 12.8143 1.12299 13.0595V1.26075C3.11442 1.25296 7.35184 1.24518 10.4176 1.24518ZM10.4176 0.0777588C6.25131 0.0777588 0 0.0933244 0 0.0933244V14.2658C7.7898 14.2658 14.0636 8.44817 14.0636 0.0933244C14.0636 0.0816502 12.4989 0.0777588 10.4176 0.0777588Z" fill="#ED7E7E"/>
<defs>
<linearGradient id="paint0_linear" x1="22.3401" y1="42.4163" x2="22.3401" y2="0.583157" gradientUnits="userSpaceOnUse">
<stop offset="0.00117723" stop-color="#E08787"/>
<stop offset="0.4304" stop-color="#FFB5B5"/>
</linearGradient>
<linearGradient id="paint1_linear" x1="37.6545" y1="18.5045" x2="37.6545" y2="-17.0385" gradientUnits="userSpaceOnUse">
<stop stop-color="#FF9999"/>
<stop offset="0.4304" stop-color="#FFB5B5"/>
</linearGradient>
<linearGradient id="paint2_linear" x1="7.02567" y1="18.5045" x2="7.02567" y2="-17.0385" gradientUnits="userSpaceOnUse">
<stop stop-color="#FF9999"/>
<stop offset="0.4304" stop-color="#FFB5B5"/>
</linearGradient>
</defs>
</svg>
