<svg width="53" height="52" viewBox="0 0 53 52" fill="none" xmlns="http://www.w3.org/2000/svg">
<path d="M3.05897 25.9955C3.15775 13.3141 13.615 3.0537 26.4616 3.12443C39.3083 3.19517 49.6048 13.5699 49.506 26.2512C49.4073 38.9326 38.95 49.193 26.1034 49.1222C13.2567 49.0515 2.96019 38.6768 3.05897 25.9955Z" stroke="#FF337C" stroke-width="5"/>
<path d="M25.5378 40.079C26.1364 40.6508 27.0859 40.6285 27.6586 40.0291L36.9909 30.2613C37.5635 29.6618 37.5425 28.7123 36.944 28.1405C36.3454 27.5686 35.3959 27.5909 34.8232 28.1903L26.5279 36.8728L17.8574 28.589C17.2588 28.0171 16.3093 28.0394 15.7366 28.6388C15.1639 29.2382 15.1849 30.1877 15.7835 30.7596L25.5378 40.079ZM24.5004 13.0352L25.0752 39.0289L28.0744 38.9584L27.4996 12.9648L24.5004 13.0352Z" fill="#FF337C"/>
</svg>
